<?xml version="1.0" encoding="UTF-8" standalone="no"?>
<svg
   xmlns:dc="http://purl.org/dc/elements/1.1/"
   xmlns:cc="http://creativecommons.org/ns#"
   xmlns:rdf="http://www.w3.org/1999/02/22-rdf-syntax-ns#"
   xmlns:svg="http://www.w3.org/2000/svg"
   xmlns="http://www.w3.org/2000/svg"
   viewBox="0 0 1024 1024"
   height="1024"
   width="1024"
   id="svg64"
   version="1.1">
  <metadata
     id="metadata70">
    <rdf:RDF>
      <cc:Work
         rdf:about="">
        <dc:format>image/svg+xml</dc:format>
        <dc:type
           rdf:resource="http://purl.org/dc/dcmitype/StillImage" />
        <dc:title></dc:title>
      </cc:Work>
    </rdf:RDF>
  </metadata>
  <defs
     id="defs68" />
  <g
     transform="translate(-1123.0359,60.7788)"
     id="g83">
    <path
       style="fill:#000000"
       d="m 1598.7429,948.9471 c -76.9574,-5.45298 -155.1768,-30.3298 -221.7218,-70.51606 -34.1079,-20.59767 -61.4532,-41.82337 -90.6532,-70.36591 -42.6827,-41.7217 -73.6129,-84.40722 -99.6461,-137.51751 -27.3522,-55.80113 -41.9069,-107.15699 -49.1712,-173.5 -1.7136,-15.64903 -1.7096,-75.67628 0.01,-92 4.3893,-41.76307 11.5985,-75.50805 24.141,-113 31.1073,-92.98598 88.9259,-174.30923 167.5452,-235.65655 49.5763,-38.684823 110.9443,-69.43723 173,-86.692829 23.9401,-6.656924 57.6466,-12.83126 86.5,-15.844997 16.2348,-1.695726 76.3602,-1.704732 92,-0.01378 43.3349,4.685317 75.0873,11.47189 113.0061,24.153264 62.9081,21.038656 120.2317,54.090982 170.9939,98.593632 14.8552,13.02339 42.5834,41.71094 55.2752,57.18746 13.833,16.86826 29.0951,38.22899 40.3018,56.40613 11.4821,18.62384 30.3411,56.1825 38.0949,75.86767 39.1371,99.36141 45.92,205.28275 19.7948,309.11948 -15.9755,63.49636 -48.2357,129.38251 -88.8102,181.38052 -18.1232,23.22579 -43.9327,50.7475 -64.6565,68.94599 -82.8889,72.78844 -186.1579,115.88421 -296,123.52549 -16.6656,1.1594 -53.1517,1.1219 -70,-0.072 z m 12,-12.60362 c -84.8409,-9.30983 -157.9571,-60.36044 -194.4909,-135.79586 -10.9699,-22.65077 -17.3599,-42.76044 -21.6075,-68 -2.6441,-15.71202 -3.5883,-44.98229 -1.9677,-61 8.5939,-84.9393 59.0636,-158.17868 134.3387,-194.94624 18.6668,-9.11767 30.4876,-13.51357 48.4362,-18.01232 19.5274,-4.89452 32.4229,-6.5325 59.2912,-7.53117 25.0019,-0.9293 39.0512,-2.57925 56,-6.57661 88.5753,-20.89043 158.8424,-90.81413 180.3214,-179.44003 5.1493,-21.24712 6.1738,-30.7123 6.169,-56.99363 -0.01,-27.52383 -1.2226,-38.06562 -7,-60.60764 -20.4307,-79.71503 -80.9971,-144.659668 -158.7402,-170.215211 -28.0996,-9.23683 -47.6754,-12.179977 -80.9608,-12.172132 -111.1425,0.0262 -218.9121,39.446336 -307.2894,112.400853 -15.4354,12.74169 -49.3525,46.6588 -62.0942,62.09413 -64.5596,78.20774 -102.1075,169.37726 -110.9258,269.3371 -1.8921,21.44701 -1.8921,62.87879 0,84.3258 8.8158,99.93189 46.3843,191.15123 110.9258,269.3371 12.9323,15.66621 46.7209,49.36549 62.7393,62.57345 75.8793,62.56612 169.0445,101.49536 262.8549,109.8344 6.875,0.61113 13.85,1.26445 15.5,1.45182 1.65,0.18737 5.025,0.33607 7.5,0.33046 3.6288,-0.008 3.8224,-0.0846 1,-0.39427 z m 13.158,-665.35534 c -15.2859,-2.71995 -30.4024,-11.98235 -39.8875,-24.44052 -19.469,-25.57138 -17.0853,-60.88646 5.635,-83.48656 25.5312,-25.39602 64.8737,-25.3875 90.2151,0.0196 13.1257,13.15966 19.669,30.08649 18.5424,47.96701 -2.0893,33.15772 -27.414,58.57169 -60.1799,60.392 -4.9407,0.27448 -11.387,0.0713 -14.3251,-0.45148 z m 31.6488,483.80519 c 15.4875,-5.47874 29.0115,-17.48593 36.2627,-32.19553 17.3418,-35.17923 -0.1428,-76.92749 -37.355,-89.19322 -7.0092,-2.31034 -9.9019,-2.70763 -19.7145,-2.70763 -9.8126,0 -12.7053,0.39729 -19.7145,2.70763 -37.4214,12.33467 -54.8339,54.34268 -37.161,89.65194 8.1127,16.20863 24.1121,29.05431 41.7456,33.51676 9.1042,2.30399 26.8811,1.4235 35.9367,-1.77995 z"
       id="path74" />
    <path
       style="fill:#ffffff;stroke-width:1.21904767"
       d="m 1572.6392,932.95738 c -89.1881,-11.40831 -178.4103,-50.35442 -247.9487,-108.23127 -25.3632,-21.10976 -56.2862,-53.27369 -75.723,-78.76174 -53.9305,-70.72051 -86.1323,-150.79937 -97.0243,-241.27866 -2.9779,-24.73786 -2.9779,-82.53832 0,-107.27619 10.772,-89.48189 42.7425,-169.65143 95.365,-239.13762 31.8264,-42.02574 73.5107,-81.394399 116.9203,-110.425363 63.5065,-42.4711026 131.7567,-68.302046 207.1917,-78.416723 23.7282,-3.181595 70.4037,-4.459105 89.6501,-2.45373 93.7841,9.771808 174.5364,75.446848 203.9863,165.900106 9.5427,29.30983 11.1034,39.84775 11.1034,74.97143 0,27.23411 -0.3056,31.96755 -2.8726,44.49524 -17.2578,84.22132 -72.9325,150.90362 -151.9244,181.96186 -25.5341,10.03959 -44.7385,13.62607 -86.4033,16.13614 -16.9031,1.01832 -35.288,2.65236 -40.8554,3.6312 -51.5218,9.05844 -98.4301,33.8307 -134.2594,70.9024 -19.5372,20.21471 -32.161,38.44945 -44.418,64.16088 -16.2793,34.1488 -23.8163,66.80254 -23.8163,103.18344 0,41.2841 6.7642,71.72014 23.8233,107.1953 31.4279,65.35554 87.5446,111.46753 158.9909,130.64548 10.822,2.90486 11.9797,3.43305 7.3573,3.35648 -3.0172,-0.05 -7.1315,-0.30138 -9.1429,-0.55866 z m 77.7714,-662.92503 c 11.1481,-2.90373 21.4639,-8.81334 29.6177,-16.9671 25.5956,-25.59558 24.9769,-67.23613 -1.3623,-91.68984 -26.095,-24.22709 -64.4234,-23.39171 -89.5697,1.9522 -12.5744,12.6733 -18.2567,26.52988 -18.2567,44.52001 0,28.15802 16.8042,51.59998 43.8286,61.14111 9.5575,3.37433 25.0567,3.82687 35.7424,1.04362 z"
       id="path76" />
    <path
       style="fill:#ffffff;stroke-width:1.21904767"
       d="m 1615.8966,754.82613 c -19.6643,-6.53067 -35.9213,-23.60814 -41.9221,-44.03786 -2.2058,-7.50986 -2.5195,-23.53912 -0.6218,-31.77875 4.5563,-19.78322 20.8813,-37.47094 41.2062,-44.64576 11.3533,-4.00777 29.1089,-4.02565 40.366,-0.0406 25.6681,9.08651 42.6667,32.70394 42.6667,59.28011 0,25.14329 -13.1655,46.17428 -35.9834,57.48098 -9.971,4.9408 -10.596,5.08107 -24.6094,5.52222 -11.5643,0.36404 -15.6946,0.0156 -21.1022,-1.7803 z"
       id="path78" />
  </g>
</svg>
